<svg xmlns="http://www.w3.org/2000/svg" width="325" height="43" fill="none"><mask id="a" width="327" height="45" x="-1" y="-1" fill="#000" maskUnits="userSpaceOnUse"><path fill="#fff" d="M-1-1h327v45H-1z"/><path d="M18.5 42.875V36.75h-6.125v-6.125H6.25V24.5H.125v-6.125H6.25V12.25h6.125V6.125H18.5V0h12.25v6.125h-6.125v6.125H18.5v6.125h-6.125V24.5H18.5v6.125h6.125v6.125h6.125v6.125H18.5ZM85.875 0v6.125H79.75V0h6.125Zm-12.25 6.125h6.125v6.125h-6.125V6.125ZM67.5 12.25h6.125v6.125H67.5V12.25Zm-6.125 6.125H67.5V24.5h-6.125v-6.125ZM55.25 24.5h6.125v6.125H55.25V24.5Zm-6.125 6.125h6.125v6.125h-6.125v-6.125ZM43 36.75h6.125v6.125H43V36.75Zm49 6.125V0h12.25v18.375h18.375V0h12.25v42.875h-12.25V24.5H104.25v18.375H92Zm67.375 0V6.125h-12.25V0h36.75v6.125h-12.25v36.75h-12.25Zm30.625 0V0h12.25v6.125h6.125v6.125h6.125V6.125h6.125V0h12.25v42.875h-12.25v-24.5H214.5v12.25h-6.125v-12.25h-6.125v24.5H190Zm55.125 0V0h12.25v36.75h24.5v6.125h-36.75Zm49 0V36.75h6.125v-6.125h6.125V24.5h6.125v-6.125h-6.125V12.25h-6.125V6.125h-6.125V0h12.25v6.125h6.125v6.125h6.125v6.125h6.125V24.5h-6.125v6.125H312.5v6.125h-6.125v6.125h-12.25Z"/></mask><path fill="#00CC14" d="M18.5 42.875V36.75h-6.125v-6.125H6.25V24.5H.125v-6.125H6.25V12.25h6.125V6.125H18.5V0h12.25v6.125h-6.125v6.125H18.5v6.125h-6.125V24.5H18.5v6.125h6.125v6.125h6.125v6.125H18.5ZM85.875 0v6.125H79.75V0h6.125Zm-12.25 6.125h6.125v6.125h-6.125V6.125ZM67.5 12.25h6.125v6.125H67.5V12.25Zm-6.125 6.125H67.5V24.5h-6.125v-6.125ZM55.25 24.5h6.125v6.125H55.25V24.5Zm-6.125 6.125h6.125v6.125h-6.125v-6.125ZM43 36.75h6.125v6.125H43V36.75Zm49 6.125V0h12.25v18.375h18.375V0h12.25v42.875h-12.25V24.5H104.25v18.375H92Zm67.375 0V6.125h-12.25V0h36.75v6.125h-12.25v36.75h-12.25Zm30.625 0V0h12.25v6.125h6.125v6.125h6.125V6.125h6.125V0h12.25v42.875h-12.25v-24.5H214.5v12.25h-6.125v-12.25h-6.125v24.5H190Zm55.125 0V0h12.25v36.75h24.5v6.125h-36.75Zm49 0V36.75h6.125v-6.125h6.125V24.5h6.125v-6.125h-6.125V12.25h-6.125V6.125h-6.125V0h12.25v6.125h6.125v6.125h6.125v6.125h6.125V24.5h-6.125v6.125H312.5v6.125h-6.125v6.125h-12.25Z"/><path fill="#000" d="M18.5 42.875h-1v1h1v-1Zm0-6.125h1v-1h-1v1Zm-6.125 0h-1v1h1v-1Zm0-6.125h1v-1h-1v1Zm-6.125 0h-1v1h1v-1Zm0-6.125h1v-1h-1v1Zm-6.125 0h-1v1h1v-1Zm0-6.125v-1h-1v1h1Zm6.125 0v1h1v-1h-1Zm0-6.125v-1h-1v1h1Zm6.125 0v1h1v-1h-1Zm0-6.125v-1h-1v1h1Zm6.125 0v1h1v-1h-1ZM18.5 0v-1h-1v1h1Zm12.25 0h1v-1h-1v1Zm0 6.125v1h1v-1h-1Zm-6.125 0v-1h-1v1h1Zm0 6.125v1h1v-1h-1Zm-6.125 0v-1h-1v1h1Zm0 6.125v1h1v-1h-1Zm-6.125 0v-1h-1v1h1Zm0 6.125h-1v1h1v-1Zm6.125 0h1v-1h-1v1Zm0 6.125h-1v1h1v-1Zm6.125 0h1v-1h-1v1Zm0 6.125h-1v1h1v-1Zm6.125 0h1v-1h-1v1Zm0 6.125v1h1v-1h-1Zm-11.25 0V36.75h-2v6.125h2Zm-1-7.125h-6.125v2H18.5v-2Zm-5.125 1v-6.125h-2v6.125h2Zm-1-7.125H6.25v2h6.125v-2Zm-5.125 1V24.5h-2v6.125h2Zm-1-7.125H.125v2H6.25v-2Zm-5.125 1v-6.125h-2V24.5h2Zm-1-5.125H6.25v-2H.125v2Zm7.125-1V12.25h-2v6.125h2Zm-1-5.125h6.125v-2H6.25v2Zm7.125-1V6.125h-2v6.125h2Zm-1-5.125H18.5v-2h-6.125v2Zm7.125-1V0h-2v6.125h2ZM18.5 1h12.25v-2H18.5v2Zm11.25-1v6.125h2V0h-2Zm1 5.125h-6.125v2h6.125v-2Zm-7.125 1v6.125h2V6.125h-2Zm1 5.125H18.5v2h6.125v-2Zm-7.125 1v6.125h2V12.25h-2Zm1 5.125h-6.125v2H18.5v-2Zm-7.125 1V24.5h2v-6.125h-2Zm1 7.125H18.5v-2h-6.125v2Zm5.125-1v6.125h2V24.5h-2Zm1 7.125h6.125v-2H18.5v2Zm5.125-1v6.125h2v-6.125h-2Zm1 7.125h6.125v-2h-6.125v2Zm5.125-1v6.125h2V36.75h-2Zm1 5.125H18.5v2h12.25v-2ZM85.875 0h1v-1h-1v1Zm0 6.125v1h1v-1h-1Zm-6.125 0h-1v1h1v-1Zm0-6.125v-1h-1v1h1Zm-6.125 6.125v-1h-1v1h1Zm6.125 0h1v-1h-1v1Zm0 6.125v1h1v-1h-1Zm-6.125 0h-1v1h1v-1Zm-6.125 0v-1h-1v1h1Zm6.125 0h1v-1h-1v1Zm0 6.125v1h1v-1h-1Zm-6.125 0h-1v1h1v-1Zm-6.125 0v-1h-1v1h1Zm6.125 0h1v-1h-1v1Zm0 6.125v1h1v-1h-1Zm-6.125 0h-1v1h1v-1Zm-6.125 0v-1h-1v1h1Zm6.125 0h1v-1h-1v1Zm0 6.125v1h1v-1h-1Zm-6.125 0h-1v1h1v-1Zm-6.125 0v-1h-1v1h1Zm6.125 0h1v-1h-1v1Zm0 6.125v1h1v-1h-1Zm-6.125 0h-1v1h1v-1Zm-6.125 0v-1h-1v1h1Zm6.125 0h1v-1h-1v1Zm0 6.125v1h1v-1h-1Zm-6.125 0h-1v1h1v-1ZM84.875 0v6.125h2V0h-2Zm1 5.125H79.75v2h6.125v-2Zm-5.125 1V0h-2v6.125h2ZM79.75 1h6.125v-2H79.75v2Zm-6.125 6.125h6.125v-2h-6.125v2Zm5.125-1v6.125h2V6.125h-2Zm1 5.125h-6.125v2h6.125v-2Zm-5.125 1V6.125h-2v6.125h2Zm-7.125 1h6.125v-2H67.5v2Zm5.125-1v6.125h2V12.25h-2Zm1 5.125H67.5v2h6.125v-2Zm-5.125 1V12.25h-2v6.125h2Zm-7.125 1H67.5v-2h-6.125v2Zm5.125-1V24.5h2v-6.125h-2Zm1 5.125h-6.125v2H67.5v-2Zm-5.125 1v-6.125h-2V24.5h2Zm-7.125 1h6.125v-2H55.25v2Zm5.125-1v6.125h2V24.5h-2Zm1 5.125H55.25v2h6.125v-2Zm-5.125 1V24.5h-2v6.125h2Zm-7.125 1h6.125v-2h-6.125v2Zm5.125-1v6.125h2v-6.125h-2Zm1 5.125h-6.125v2h6.125v-2Zm-5.125 1v-6.125h-2v6.125h2Zm-7.125 1h6.125v-2H43v2Zm5.125-1v6.125h2V36.75h-2Zm1 5.125H43v2h6.125v-2Zm-5.125 1V36.75h-2v6.125h2Zm48 0h-1v1h1v-1ZM92 0v-1h-1v1h1Zm12.25 0h1v-1h-1v1Zm0 18.375h-1v1h1v-1Zm18.375 0v1h1v-1h-1Zm0-18.375v-1h-1v1h1Zm12.25 0h1v-1h-1v1Zm0 42.875v1h1v-1h-1Zm-12.25 0h-1v1h1v-1Zm0-18.375h1v-1h-1v1Zm-18.375 0v-1h-1v1h1Zm0 18.375v1h1v-1h-1Zm-11.25 0V0h-2v42.875h2ZM92 1h12.25v-2H92v2Zm11.25-1v18.375h2V0h-2Zm1 19.375h18.375v-2H104.25v2Zm19.375-1V0h-2v18.375h2Zm-1-17.375h12.25v-2h-12.25v2Zm11.25-1v42.875h2V0h-2Zm1 41.875h-12.25v2h12.25v-2Zm-11.25 1V24.5h-2v18.375h2Zm-1-19.375H104.25v2h18.375v-2Zm-19.375 1v18.375h2V24.5h-2Zm1 17.375H92v2h12.25v-2Zm55.125 1h-1v1h1v-1Zm0-36.75h1v-1h-1v1Zm-12.25 0h-1v1h1v-1Zm0-6.125v-1h-1v1h1Zm36.75 0h1v-1h-1v1Zm0 6.125v1h1v-1h-1Zm-12.25 0v-1h-1v1h1Zm0 36.75v1h1v-1h-1Zm-11.25 0V6.125h-2v36.75h2Zm-1-37.75h-12.25v2h12.25v-2Zm-11.25 1V0h-2v6.125h2Zm-1-5.125h36.75v-2h-36.75v2Zm35.75-1v6.125h2V0h-2Zm1 5.125h-12.25v2h12.25v-2Zm-13.25 1v36.75h2V6.125h-2Zm1 35.75h-12.25v2h12.25v-2Zm18.375 1h-1v1h1v-1ZM190 0v-1h-1v1h1Zm12.25 0h1v-1h-1v1Zm0 6.125h-1v1h1v-1Zm6.125 0h1v-1h-1v1Zm0 6.125h-1v1h1v-1Zm6.125 0v1h1v-1h-1Zm0-6.125v-1h-1v1h1Zm6.125 0v1h1v-1h-1Zm0-6.125v-1h-1v1h1Zm12.25 0h1v-1h-1v1Zm0 42.875v1h1v-1h-1Zm-12.25 0h-1v1h1v-1Zm0-24.5h1v-1h-1v1Zm-6.125 0v-1h-1v1h1Zm0 12.25v1h1v-1h-1Zm-6.125 0h-1v1h1v-1Zm0-12.25h1v-1h-1v1Zm-6.125 0v-1h-1v1h1Zm0 24.5v1h1v-1h-1Zm-11.25 0V0h-2v42.875h2ZM190 1h12.25v-2H190v2Zm11.25-1v6.125h2V0h-2Zm1 7.125h6.125v-2h-6.125v2Zm5.125-1v6.125h2V6.125h-2Zm1 7.125h6.125v-2h-6.125v2Zm7.125-1V6.125h-2v6.125h2Zm-1-5.125h6.125v-2H214.5v2Zm7.125-1V0h-2v6.125h2Zm-1-5.125h12.25v-2h-12.25v2Zm11.25-1v42.875h2V0h-2Zm1 41.875h-12.25v2h12.25v-2Zm-11.25 1v-24.5h-2v24.5h2Zm-1-25.5H214.5v2h6.125v-2Zm-7.125 1v12.25h2v-12.25h-2Zm1 11.25h-6.125v2h6.125v-2Zm-5.125 1v-12.25h-2v12.25h2Zm-1-13.25h-6.125v2h6.125v-2Zm-7.125 1v24.5h2v-24.5h-2Zm1 23.5H190v2h12.25v-2Zm42.875 1h-1v1h1v-1Zm0-42.875v-1h-1v1h1Zm12.25 0h1v-1h-1v1Zm0 36.75h-1v1h1v-1Zm24.5 0h1v-1h-1v1Zm0 6.125v1h1v-1h-1Zm-35.75 0V0h-2v42.875h2Zm-1-41.875h12.25v-2h-12.25v2Zm11.25-1v36.75h2V0h-2Zm1 37.75h24.5v-2h-24.5v2Zm23.5-1v6.125h2V36.75h-2Zm1 5.125h-36.75v2h36.75v-2Zm12.25 1h-1v1h1v-1Zm0-6.125v-1h-1v1h1Zm6.125 0v1h1v-1h-1Zm0-6.125v-1h-1v1h1Zm6.125 0v1h1v-1h-1Zm0-6.125v-1h-1v1h1Zm6.125 0v1h1v-1h-1Zm0-6.125h1v-1h-1v1Zm-6.125 0h-1v1h1v-1Zm0-6.125h1v-1h-1v1Zm-6.125 0h-1v1h1v-1Zm0-6.125h1v-1h-1v1Zm-6.125 0h-1v1h1v-1Zm0-6.125v-1h-1v1h1Zm12.25 0h1v-1h-1v1Zm0 6.125h-1v1h1v-1Zm6.125 0h1v-1h-1v1Zm0 6.125h-1v1h1v-1Zm6.125 0h1v-1h-1v1Zm0 6.125h-1v1h1v-1Zm6.125 0h1v-1h-1v1Zm0 6.125v1h1v-1h-1Zm-6.125 0v-1h-1v1h1Zm0 6.125v1h1v-1h-1Zm-6.125 0v-1h-1v1h1Zm0 6.125v1h1v-1h-1Zm-6.125 0v-1h-1v1h1Zm0 6.125v1h1v-1h-1Zm-11.25 0V36.75h-2v6.125h2Zm-1-5.125h6.125v-2h-6.125v2Zm7.125-1v-6.125h-2v6.125h2Zm-1-5.125h6.125v-2h-6.125v2Zm7.125-1V24.5h-2v6.125h2Zm-1-5.125h6.125v-2h-6.125v2Zm7.125-1v-6.125h-2V24.5h2Zm-1-7.125h-6.125v2h6.125v-2Zm-5.125 1V12.25h-2v6.125h2Zm-1-7.125h-6.125v2h6.125v-2Zm-5.125 1V6.125h-2v6.125h2Zm-1-7.125h-6.125v2h6.125v-2Zm-5.125 1V0h-2v6.125h2Zm-1-5.125h12.25v-2h-12.25v2Zm11.25-1v6.125h2V0h-2Zm1 7.125h6.125v-2h-6.125v2Zm5.125-1v6.125h2V6.125h-2Zm1 7.125h6.125v-2H312.5v2Zm5.125-1v6.125h2V12.25h-2Zm1 7.125h6.125v-2h-6.125v2Zm5.125-1V24.5h2v-6.125h-2Zm1 5.125h-6.125v2h6.125v-2Zm-7.125 1v6.125h2V24.5h-2Zm1 5.125H312.5v2h6.125v-2Zm-7.125 1v6.125h2v-6.125h-2Zm1 5.125h-6.125v2h6.125v-2Zm-7.125 1v6.125h2V36.75h-2Zm1 5.125h-12.25v2h12.25v-2Z" mask="url(#a)"/><path fill="#000" fill-opacity=".2" d="M18.5 42.875h-1v1h1v-1Zm0-6.125h1v-1h-1v1Zm-6.125 0h-1v1h1v-1Zm0-6.125h1v-1h-1v1Zm-6.125 0h-1v1h1v-1Zm0-6.125h1v-1h-1v1Zm-6.125 0h-1v1h1v-1Zm0-6.125v-1h-1v1h1Zm6.125 0v1h1v-1h-1Zm0-6.125v-1h-1v1h1Zm6.125 0v1h1v-1h-1Zm0-6.125v-1h-1v1h1Zm6.125 0v1h1v-1h-1ZM18.5 0v-1h-1v1h1Zm12.25 0h1v-1h-1v1Zm0 6.125v1h1v-1h-1Zm-6.125 0v-1h-1v1h1Zm0 6.125v1h1v-1h-1Zm-6.125 0v-1h-1v1h1Zm0 6.125v1h1v-1h-1Zm-6.125 0v-1h-1v1h1Zm0 6.125h-1v1h1v-1Zm6.125 0h1v-1h-1v1Zm0 6.125h-1v1h1v-1Zm6.125 0h1v-1h-1v1Zm0 6.125h-1v1h1v-1Zm6.125 0h1v-1h-1v1Zm0 6.125v1h1v-1h-1Zm-11.25 0V36.75h-2v6.125h2Zm-1-7.125h-6.125v2H18.5v-2Zm-5.125 1v-6.125h-2v6.125h2Zm-1-7.125H6.25v2h6.125v-2Zm-5.125 1V24.5h-2v6.125h2Zm-1-7.125H.125v2H6.25v-2Zm-5.125 1v-6.125h-2V24.5h2Zm-1-5.125H6.25v-2H.125v2Zm7.125-1V12.25h-2v6.125h2Zm-1-5.125h6.125v-2H6.25v2Zm7.125-1V6.125h-2v6.125h2Zm-1-5.125H18.5v-2h-6.125v2Zm7.125-1V0h-2v6.125h2ZM18.5 1h12.25v-2H18.5v2Zm11.25-1v6.125h2V0h-2Zm1 5.125h-6.125v2h6.125v-2Zm-7.125 1v6.125h2V6.125h-2Zm1 5.125H18.5v2h6.125v-2Zm-7.125 1v6.125h2V12.25h-2Zm1 5.125h-6.125v2H18.5v-2Zm-7.125 1V24.5h2v-6.125h-2Zm1 7.125H18.5v-2h-6.125v2Zm5.125-1v6.125h2V24.5h-2Zm1 7.125h6.125v-2H18.5v2Zm5.125-1v6.125h2v-6.125h-2Zm1 7.125h6.125v-2h-6.125v2Zm5.125-1v6.125h2V36.75h-2Zm1 5.125H18.5v2h12.25v-2ZM85.875 0h1v-1h-1v1Zm0 6.125v1h1v-1h-1Zm-6.125 0h-1v1h1v-1Zm0-6.125v-1h-1v1h1Zm-6.125 6.125v-1h-1v1h1Zm6.125 0h1v-1h-1v1Zm0 6.125v1h1v-1h-1Zm-6.125 0h-1v1h1v-1Zm-6.125 0v-1h-1v1h1Zm6.125 0h1v-1h-1v1Zm0 6.125v1h1v-1h-1Zm-6.125 0h-1v1h1v-1Zm-6.125 0v-1h-1v1h1Zm6.125 0h1v-1h-1v1Zm0 6.125v1h1v-1h-1Zm-6.125 0h-1v1h1v-1Zm-6.125 0v-1h-1v1h1Zm6.125 0h1v-1h-1v1Zm0 6.125v1h1v-1h-1Zm-6.125 0h-1v1h1v-1Zm-6.125 0v-1h-1v1h1Zm6.125 0h1v-1h-1v1Zm0 6.125v1h1v-1h-1Zm-6.125 0h-1v1h1v-1Zm-6.125 0v-1h-1v1h1Zm6.125 0h1v-1h-1v1Zm0 6.125v1h1v-1h-1Zm-6.125 0h-1v1h1v-1ZM84.875 0v6.125h2V0h-2Zm1 5.125H79.75v2h6.125v-2Zm-5.125 1V0h-2v6.125h2ZM79.75 1h6.125v-2H79.75v2Zm-6.125 6.125h6.125v-2h-6.125v2Zm5.125-1v6.125h2V6.125h-2Zm1 5.125h-6.125v2h6.125v-2Zm-5.125 1V6.125h-2v6.125h2Zm-7.125 1h6.125v-2H67.5v2Zm5.125-1v6.125h2V12.25h-2Zm1 5.125H67.5v2h6.125v-2Zm-5.125 1V12.25h-2v6.125h2Zm-7.125 1H67.5v-2h-6.125v2Zm5.125-1V24.5h2v-6.125h-2Zm1 5.125h-6.125v2H67.5v-2Zm-5.125 1v-6.125h-2V24.5h2Zm-7.125 1h6.125v-2H55.25v2Zm5.125-1v6.125h2V24.5h-2Zm1 5.125H55.25v2h6.125v-2Zm-5.125 1V24.5h-2v6.125h2Zm-7.125 1h6.125v-2h-6.125v2Zm5.125-1v6.125h2v-6.125h-2Zm1 5.125h-6.125v2h6.125v-2Zm-5.125 1v-6.125h-2v6.125h2Zm-7.125 1h6.125v-2H43v2Zm5.125-1v6.125h2V36.75h-2Zm1 5.125H43v2h6.125v-2Zm-5.125 1V36.75h-2v6.125h2Zm48 0h-1v1h1v-1ZM92 0v-1h-1v1h1Zm12.25 0h1v-1h-1v1Zm0 18.375h-1v1h1v-1Zm18.375 0v1h1v-1h-1Zm0-18.375v-1h-1v1h1Zm12.25 0h1v-1h-1v1Zm0 42.875v1h1v-1h-1Zm-12.25 0h-1v1h1v-1Zm0-18.375h1v-1h-1v1Zm-18.375 0v-1h-1v1h1Zm0 18.375v1h1v-1h-1Zm-11.25 0V0h-2v42.875h2ZM92 1h12.25v-2H92v2Zm11.25-1v18.375h2V0h-2Zm1 19.375h18.375v-2H104.25v2Zm19.375-1V0h-2v18.375h2Zm-1-17.375h12.25v-2h-12.25v2Zm11.25-1v42.875h2V0h-2Zm1 41.875h-12.25v2h12.25v-2Zm-11.25 1V24.5h-2v18.375h2Zm-1-19.375H104.25v2h18.375v-2Zm-19.375 1v18.375h2V24.5h-2Zm1 17.375H92v2h12.25v-2Zm55.125 1h-1v1h1v-1Zm0-36.75h1v-1h-1v1Zm-12.25 0h-1v1h1v-1Zm0-6.125v-1h-1v1h1Zm36.75 0h1v-1h-1v1Zm0 6.125v1h1v-1h-1Zm-12.25 0v-1h-1v1h1Zm0 36.75v1h1v-1h-1Zm-11.25 0V6.125h-2v36.75h2Zm-1-37.75h-12.25v2h12.25v-2Zm-11.25 1V0h-2v6.125h2Zm-1-5.125h36.75v-2h-36.75v2Zm35.75-1v6.125h2V0h-2Zm1 5.125h-12.25v2h12.25v-2Zm-13.25 1v36.75h2V6.125h-2Zm1 35.75h-12.25v2h12.25v-2Zm18.375 1h-1v1h1v-1ZM190 0v-1h-1v1h1Zm12.25 0h1v-1h-1v1Zm0 6.125h-1v1h1v-1Zm6.125 0h1v-1h-1v1Zm0 6.125h-1v1h1v-1Zm6.125 0v1h1v-1h-1Zm0-6.125v-1h-1v1h1Zm6.125 0v1h1v-1h-1Zm0-6.125v-1h-1v1h1Zm12.25 0h1v-1h-1v1Zm0 42.875v1h1v-1h-1Zm-12.25 0h-1v1h1v-1Zm0-24.5h1v-1h-1v1Zm-6.125 0v-1h-1v1h1Zm0 12.25v1h1v-1h-1Zm-6.125 0h-1v1h1v-1Zm0-12.25h1v-1h-1v1Zm-6.125 0v-1h-1v1h1Zm0 24.5v1h1v-1h-1Zm-11.25 0V0h-2v42.875h2ZM190 1h12.25v-2H190v2Zm11.25-1v6.125h2V0h-2Zm1 7.125h6.125v-2h-6.125v2Zm5.125-1v6.125h2V6.125h-2Zm1 7.125h6.125v-2h-6.125v2Zm7.125-1V6.125h-2v6.125h2Zm-1-5.125h6.125v-2H214.5v2Zm7.125-1V0h-2v6.125h2Zm-1-5.125h12.25v-2h-12.25v2Zm11.25-1v42.875h2V0h-2Zm1 41.875h-12.25v2h12.25v-2Zm-11.25 1v-24.5h-2v24.5h2Zm-1-25.5H214.5v2h6.125v-2Zm-7.125 1v12.25h2v-12.25h-2Zm1 11.25h-6.125v2h6.125v-2Zm-5.125 1v-12.25h-2v12.25h2Zm-1-13.25h-6.125v2h6.125v-2Zm-7.125 1v24.5h2v-24.5h-2Zm1 23.5H190v2h12.25v-2Zm42.875 1h-1v1h1v-1Zm0-42.875v-1h-1v1h1Zm12.25 0h1v-1h-1v1Zm0 36.75h-1v1h1v-1Zm24.5 0h1v-1h-1v1Zm0 6.125v1h1v-1h-1Zm-35.75 0V0h-2v42.875h2Zm-1-41.875h12.25v-2h-12.25v2Zm11.25-1v36.75h2V0h-2Zm1 37.75h24.5v-2h-24.5v2Zm23.5-1v6.125h2V36.75h-2Zm1 5.125h-36.75v2h36.75v-2Zm12.25 1h-1v1h1v-1Zm0-6.125v-1h-1v1h1Zm6.125 0v1h1v-1h-1Zm0-6.125v-1h-1v1h1Zm6.125 0v1h1v-1h-1Zm0-6.125v-1h-1v1h1Zm6.125 0v1h1v-1h-1Zm0-6.125h1v-1h-1v1Zm-6.125 0h-1v1h1v-1Zm0-6.125h1v-1h-1v1Zm-6.125 0h-1v1h1v-1Zm0-6.125h1v-1h-1v1Zm-6.125 0h-1v1h1v-1Zm0-6.125v-1h-1v1h1Zm12.25 0h1v-1h-1v1Zm0 6.125h-1v1h1v-1Zm6.125 0h1v-1h-1v1Zm0 6.125h-1v1h1v-1Zm6.125 0h1v-1h-1v1Zm0 6.125h-1v1h1v-1Zm6.125 0h1v-1h-1v1Zm0 6.125v1h1v-1h-1Zm-6.125 0v-1h-1v1h1Zm0 6.125v1h1v-1h-1Zm-6.125 0v-1h-1v1h1Zm0 6.125v1h1v-1h-1Zm-6.125 0v-1h-1v1h1Zm0 6.125v1h1v-1h-1Zm-11.25 0V36.75h-2v6.125h2Zm-1-5.125h6.125v-2h-6.125v2Zm7.125-1v-6.125h-2v6.125h2Zm-1-5.125h6.125v-2h-6.125v2Zm7.125-1V24.5h-2v6.125h2Zm-1-5.125h6.125v-2h-6.125v2Zm7.125-1v-6.125h-2V24.5h2Zm-1-7.125h-6.125v2h6.125v-2Zm-5.125 1V12.25h-2v6.125h2Zm-1-7.125h-6.125v2h6.125v-2Zm-5.125 1V6.125h-2v6.125h2Zm-1-7.125h-6.125v2h6.125v-2Zm-5.125 1V0h-2v6.125h2Zm-1-5.125h12.25v-2h-12.25v2Zm11.25-1v6.125h2V0h-2Zm1 7.125h6.125v-2h-6.125v2Zm5.125-1v6.125h2V6.125h-2Zm1 7.125h6.125v-2H312.5v2Zm5.125-1v6.125h2V12.25h-2Zm1 7.125h6.125v-2h-6.125v2Zm5.125-1V24.5h2v-6.125h-2Zm1 5.125h-6.125v2h6.125v-2Zm-7.125 1v6.125h2V24.5h-2Zm1 5.125H312.5v2h6.125v-2Zm-7.125 1v6.125h2v-6.125h-2Zm1 5.125h-6.125v2h6.125v-2Zm-7.125 1v6.125h2V36.75h-2Zm1 5.125h-12.25v2h12.25v-2Z" mask="url(#a)"/><path fill="#000" fill-opacity=".2" d="M18.5 42.875h-1v1h1v-1Zm0-6.125h1v-1h-1v1Zm-6.125 0h-1v1h1v-1Zm0-6.125h1v-1h-1v1Zm-6.125 0h-1v1h1v-1Zm0-6.125h1v-1h-1v1Zm-6.125 0h-1v1h1v-1Zm0-6.125v-1h-1v1h1Zm6.125 0v1h1v-1h-1Zm0-6.125v-1h-1v1h1Zm6.125 0v1h1v-1h-1Zm0-6.125v-1h-1v1h1Zm6.125 0v1h1v-1h-1ZM18.5 0v-1h-1v1h1Zm12.25 0h1v-1h-1v1Zm0 6.125v1h1v-1h-1Zm-6.125 0v-1h-1v1h1Zm0 6.125v1h1v-1h-1Zm-6.125 0v-1h-1v1h1Zm0 6.125v1h1v-1h-1Zm-6.125 0v-1h-1v1h1Zm0 6.125h-1v1h1v-1Zm6.125 0h1v-1h-1v1Zm0 6.125h-1v1h1v-1Zm6.125 0h1v-1h-1v1Zm0 6.125h-1v1h1v-1Zm6.125 0h1v-1h-1v1Zm0 6.125v1h1v-1h-1Zm-11.25 0V36.75h-2v6.125h2Zm-1-7.125h-6.125v2H18.5v-2Zm-5.125 1v-6.125h-2v6.125h2Zm-1-7.125H6.25v2h6.125v-2Zm-5.125 1V24.5h-2v6.125h2Zm-1-7.125H.125v2H6.25v-2Zm-5.125 1v-6.125h-2V24.5h2Zm-1-5.125H6.25v-2H.125v2Zm7.125-1V12.25h-2v6.125h2Zm-1-5.125h6.125v-2H6.25v2Zm7.125-1V6.125h-2v6.125h2Zm-1-5.125H18.5v-2h-6.125v2Zm7.125-1V0h-2v6.125h2ZM18.5 1h12.25v-2H18.5v2Zm11.25-1v6.125h2V0h-2Zm1 5.125h-6.125v2h6.125v-2Zm-7.125 1v6.125h2V6.125h-2Zm1 5.125H18.5v2h6.125v-2Zm-7.125 1v6.125h2V12.25h-2Zm1 5.125h-6.125v2H18.5v-2Zm-7.125 1V24.5h2v-6.125h-2Zm1 7.125H18.5v-2h-6.125v2Zm5.125-1v6.125h2V24.5h-2Zm1 7.125h6.125v-2H18.5v2Zm5.125-1v6.125h2v-6.125h-2Zm1 7.125h6.125v-2h-6.125v2Zm5.125-1v6.125h2V36.75h-2Zm1 5.125H18.5v2h12.25v-2ZM85.875 0h1v-1h-1v1Zm0 6.125v1h1v-1h-1Zm-6.125 0h-1v1h1v-1Zm0-6.125v-1h-1v1h1Zm-6.125 6.125v-1h-1v1h1Zm6.125 0h1v-1h-1v1Zm0 6.125v1h1v-1h-1Zm-6.125 0h-1v1h1v-1Zm-6.125 0v-1h-1v1h1Zm6.125 0h1v-1h-1v1Zm0 6.125v1h1v-1h-1Zm-6.125 0h-1v1h1v-1Zm-6.125 0v-1h-1v1h1Zm6.125 0h1v-1h-1v1Zm0 6.125v1h1v-1h-1Zm-6.125 0h-1v1h1v-1Zm-6.125 0v-1h-1v1h1Zm6.125 0h1v-1h-1v1Zm0 6.125v1h1v-1h-1Zm-6.125 0h-1v1h1v-1Zm-6.125 0v-1h-1v1h1Zm6.125 0h1v-1h-1v1Zm0 6.125v1h1v-1h-1Zm-6.125 0h-1v1h1v-1Zm-6.125 0v-1h-1v1h1Zm6.125 0h1v-1h-1v1Zm0 6.125v1h1v-1h-1Zm-6.125 0h-1v1h1v-1ZM84.875 0v6.125h2V0h-2Zm1 5.125H79.75v2h6.125v-2Zm-5.125 1V0h-2v6.125h2ZM79.75 1h6.125v-2H79.75v2Zm-6.125 6.125h6.125v-2h-6.125v2Zm5.125-1v6.125h2V6.125h-2Zm1 5.125h-6.125v2h6.125v-2Zm-5.125 1V6.125h-2v6.125h2Zm-7.125 1h6.125v-2H67.5v2Zm5.125-1v6.125h2V12.25h-2Zm1 5.125H67.5v2h6.125v-2Zm-5.125 1V12.25h-2v6.125h2Zm-7.125 1H67.5v-2h-6.125v2Zm5.125-1V24.5h2v-6.125h-2Zm1 5.125h-6.125v2H67.5v-2Zm-5.125 1v-6.125h-2V24.5h2Zm-7.125 1h6.125v-2H55.25v2Zm5.125-1v6.125h2V24.5h-2Zm1 5.125H55.25v2h6.125v-2Zm-5.125 1V24.5h-2v6.125h2Zm-7.125 1h6.125v-2h-6.125v2Zm5.125-1v6.125h2v-6.125h-2Zm1 5.125h-6.125v2h6.125v-2Zm-5.125 1v-6.125h-2v6.125h2Zm-7.125 1h6.125v-2H43v2Zm5.125-1v6.125h2V36.75h-2Zm1 5.125H43v2h6.125v-2Zm-5.125 1V36.75h-2v6.125h2Zm48 0h-1v1h1v-1ZM92 0v-1h-1v1h1Zm12.25 0h1v-1h-1v1Zm0 18.375h-1v1h1v-1Zm18.375 0v1h1v-1h-1Zm0-18.375v-1h-1v1h1Zm12.25 0h1v-1h-1v1Zm0 42.875v1h1v-1h-1Zm-12.25 0h-1v1h1v-1Zm0-18.375h1v-1h-1v1Zm-18.375 0v-1h-1v1h1Zm0 18.375v1h1v-1h-1Zm-11.25 0V0h-2v42.875h2ZM92 1h12.25v-2H92v2Zm11.25-1v18.375h2V0h-2Zm1 19.375h18.375v-2H104.25v2Zm19.375-1V0h-2v18.375h2Zm-1-17.375h12.25v-2h-12.25v2Zm11.25-1v42.875h2V0h-2Zm1 41.875h-12.25v2h12.25v-2Zm-11.25 1V24.5h-2v18.375h2Zm-1-19.375H104.25v2h18.375v-2Zm-19.375 1v18.375h2V24.5h-2Zm1 17.375H92v2h12.25v-2Zm55.125 1h-1v1h1v-1Zm0-36.75h1v-1h-1v1Zm-12.25 0h-1v1h1v-1Zm0-6.125v-1h-1v1h1Zm36.75 0h1v-1h-1v1Zm0 6.125v1h1v-1h-1Zm-12.25 0v-1h-1v1h1Zm0 36.75v1h1v-1h-1Zm-11.25 0V6.125h-2v36.75h2Zm-1-37.75h-12.25v2h12.25v-2Zm-11.25 1V0h-2v6.125h2Zm-1-5.125h36.75v-2h-36.75v2Zm35.75-1v6.125h2V0h-2Zm1 5.125h-12.25v2h12.25v-2Zm-13.25 1v36.75h2V6.125h-2Zm1 35.75h-12.25v2h12.25v-2Zm18.375 1h-1v1h1v-1ZM190 0v-1h-1v1h1Zm12.25 0h1v-1h-1v1Zm0 6.125h-1v1h1v-1Zm6.125 0h1v-1h-1v1Zm0 6.125h-1v1h1v-1Zm6.125 0v1h1v-1h-1Zm0-6.125v-1h-1v1h1Zm6.125 0v1h1v-1h-1Zm0-6.125v-1h-1v1h1Zm12.25 0h1v-1h-1v1Zm0 42.875v1h1v-1h-1Zm-12.25 0h-1v1h1v-1Zm0-24.5h1v-1h-1v1Zm-6.125 0v-1h-1v1h1Zm0 12.25v1h1v-1h-1Zm-6.125 0h-1v1h1v-1Zm0-12.25h1v-1h-1v1Zm-6.125 0v-1h-1v1h1Zm0 24.5v1h1v-1h-1Zm-11.25 0V0h-2v42.875h2ZM190 1h12.25v-2H190v2Zm11.25-1v6.125h2V0h-2Zm1 7.125h6.125v-2h-6.125v2Zm5.125-1v6.125h2V6.125h-2Zm1 7.125h6.125v-2h-6.125v2Zm7.125-1V6.125h-2v6.125h2Zm-1-5.125h6.125v-2H214.5v2Zm7.125-1V0h-2v6.125h2Zm-1-5.125h12.25v-2h-12.25v2Zm11.25-1v42.875h2V0h-2Zm1 41.875h-12.25v2h12.25v-2Zm-11.25 1v-24.5h-2v24.5h2Zm-1-25.5H214.5v2h6.125v-2Zm-7.125 1v12.25h2v-12.25h-2Zm1 11.25h-6.125v2h6.125v-2Zm-5.125 1v-12.25h-2v12.25h2Zm-1-13.25h-6.125v2h6.125v-2Zm-7.125 1v24.5h2v-24.5h-2Zm1 23.5H190v2h12.25v-2Zm42.875 1h-1v1h1v-1Zm0-42.875v-1h-1v1h1Zm12.25 0h1v-1h-1v1Zm0 36.75h-1v1h1v-1Zm24.5 0h1v-1h-1v1Zm0 6.125v1h1v-1h-1Zm-35.75 0V0h-2v42.875h2Zm-1-41.875h12.25v-2h-12.25v2Zm11.25-1v36.75h2V0h-2Zm1 37.75h24.5v-2h-24.5v2Zm23.5-1v6.125h2V36.75h-2Zm1 5.125h-36.75v2h36.75v-2Zm12.25 1h-1v1h1v-1Zm0-6.125v-1h-1v1h1Zm6.125 0v1h1v-1h-1Zm0-6.125v-1h-1v1h1Zm6.125 0v1h1v-1h-1Zm0-6.125v-1h-1v1h1Zm6.125 0v1h1v-1h-1Zm0-6.125h1v-1h-1v1Zm-6.125 0h-1v1h1v-1Zm0-6.125h1v-1h-1v1Zm-6.125 0h-1v1h1v-1Zm0-6.125h1v-1h-1v1Zm-6.125 0h-1v1h1v-1Zm0-6.125v-1h-1v1h1Zm12.25 0h1v-1h-1v1Zm0 6.125h-1v1h1v-1Zm6.125 0h1v-1h-1v1Zm0 6.125h-1v1h1v-1Zm6.125 0h1v-1h-1v1Zm0 6.125h-1v1h1v-1Zm6.125 0h1v-1h-1v1Zm0 6.125v1h1v-1h-1Zm-6.125 0v-1h-1v1h1Zm0 6.125v1h1v-1h-1Zm-6.125 0v-1h-1v1h1Zm0 6.125v1h1v-1h-1Zm-6.125 0v-1h-1v1h1Zm0 6.125v1h1v-1h-1Zm-11.25 0V36.75h-2v6.125h2Zm-1-5.125h6.125v-2h-6.125v2Zm7.125-1v-6.125h-2v6.125h2Zm-1-5.125h6.125v-2h-6.125v2Zm7.125-1V24.5h-2v6.125h2Zm-1-5.125h6.125v-2h-6.125v2Zm7.125-1v-6.125h-2V24.5h2Zm-1-7.125h-6.125v2h6.125v-2Zm-5.125 1V12.25h-2v6.125h2Zm-1-7.125h-6.125v2h6.125v-2Zm-5.125 1V6.125h-2v6.125h2Zm-1-7.125h-6.125v2h6.125v-2Zm-5.125 1V0h-2v6.125h2Zm-1-5.125h12.25v-2h-12.25v2Zm11.25-1v6.125h2V0h-2Zm1 7.125h6.125v-2h-6.125v2Zm5.125-1v6.125h2V6.125h-2Zm1 7.125h6.125v-2H312.5v2Zm5.125-1v6.125h2V12.25h-2Zm1 7.125h6.125v-2h-6.125v2Zm5.125-1V24.5h2v-6.125h-2Zm1 5.125h-6.125v2h6.125v-2Zm-7.125 1v6.125h2V24.5h-2Zm1 5.125H312.5v2h6.125v-2Zm-7.125 1v6.125h2v-6.125h-2Zm1 5.125h-6.125v2h6.125v-2Zm-7.125 1v6.125h2V36.75h-2Zm1 5.125h-12.25v2h12.25v-2Z" mask="url(#a)"/><path fill="#000" fill-opacity=".2" d="M18.5 42.875h-1v1h1v-1Zm0-6.125h1v-1h-1v1Zm-6.125 0h-1v1h1v-1Zm0-6.125h1v-1h-1v1Zm-6.125 0h-1v1h1v-1Zm0-6.125h1v-1h-1v1Zm-6.125 0h-1v1h1v-1Zm0-6.125v-1h-1v1h1Zm6.125 0v1h1v-1h-1Zm0-6.125v-1h-1v1h1Zm6.125 0v1h1v-1h-1Zm0-6.125v-1h-1v1h1Zm6.125 0v1h1v-1h-1ZM18.5 0v-1h-1v1h1Zm12.25 0h1v-1h-1v1Zm0 6.125v1h1v-1h-1Zm-6.125 0v-1h-1v1h1Zm0 6.125v1h1v-1h-1Zm-6.125 0v-1h-1v1h1Zm0 6.125v1h1v-1h-1Zm-6.125 0v-1h-1v1h1Zm0 6.125h-1v1h1v-1Zm6.125 0h1v-1h-1v1Zm0 6.125h-1v1h1v-1Zm6.125 0h1v-1h-1v1Zm0 6.125h-1v1h1v-1Zm6.125 0h1v-1h-1v1Zm0 6.125v1h1v-1h-1Zm-11.25 0V36.75h-2v6.125h2Zm-1-7.125h-6.125v2H18.5v-2Zm-5.125 1v-6.125h-2v6.125h2Zm-1-7.125H6.25v2h6.125v-2Zm-5.125 1V24.5h-2v6.125h2Zm-1-7.125H.125v2H6.25v-2Zm-5.125 1v-6.125h-2V24.5h2Zm-1-5.125H6.25v-2H.125v2Zm7.125-1V12.25h-2v6.125h2Zm-1-5.125h6.125v-2H6.25v2Zm7.125-1V6.125h-2v6.125h2Zm-1-5.125H18.5v-2h-6.125v2Zm7.125-1V0h-2v6.125h2ZM18.5 1h12.25v-2H18.5v2Zm11.25-1v6.125h2V0h-2Zm1 5.125h-6.125v2h6.125v-2Zm-7.125 1v6.125h2V6.125h-2Zm1 5.125H18.5v2h6.125v-2Zm-7.125 1v6.125h2V12.25h-2Zm1 5.125h-6.125v2H18.5v-2Zm-7.125 1V24.5h2v-6.125h-2Zm1 7.125H18.5v-2h-6.125v2Zm5.125-1v6.125h2V24.5h-2Zm1 7.125h6.125v-2H18.5v2Zm5.125-1v6.125h2v-6.125h-2Zm1 7.125h6.125v-2h-6.125v2Zm5.125-1v6.125h2V36.75h-2Zm1 5.125H18.5v2h12.25v-2ZM85.875 0h1v-1h-1v1Zm0 6.125v1h1v-1h-1Zm-6.125 0h-1v1h1v-1Zm0-6.125v-1h-1v1h1Zm-6.125 6.125v-1h-1v1h1Zm6.125 0h1v-1h-1v1Zm0 6.125v1h1v-1h-1Zm-6.125 0h-1v1h1v-1Zm-6.125 0v-1h-1v1h1Zm6.125 0h1v-1h-1v1Zm0 6.125v1h1v-1h-1Zm-6.125 0h-1v1h1v-1Zm-6.125 0v-1h-1v1h1Zm6.125 0h1v-1h-1v1Zm0 6.125v1h1v-1h-1Zm-6.125 0h-1v1h1v-1Zm-6.125 0v-1h-1v1h1Zm6.125 0h1v-1h-1v1Zm0 6.125v1h1v-1h-1Zm-6.125 0h-1v1h1v-1Zm-6.125 0v-1h-1v1h1Zm6.125 0h1v-1h-1v1Zm0 6.125v1h1v-1h-1Zm-6.125 0h-1v1h1v-1Zm-6.125 0v-1h-1v1h1Zm6.125 0h1v-1h-1v1Zm0 6.125v1h1v-1h-1Zm-6.125 0h-1v1h1v-1ZM84.875 0v6.125h2V0h-2Zm1 5.125H79.75v2h6.125v-2Zm-5.125 1V0h-2v6.125h2ZM79.75 1h6.125v-2H79.75v2Zm-6.125 6.125h6.125v-2h-6.125v2Zm5.125-1v6.125h2V6.125h-2Zm1 5.125h-6.125v2h6.125v-2Zm-5.125 1V6.125h-2v6.125h2Zm-7.125 1h6.125v-2H67.5v2Zm5.125-1v6.125h2V12.25h-2Zm1 5.125H67.5v2h6.125v-2Zm-5.125 1V12.25h-2v6.125h2Zm-7.125 1H67.5v-2h-6.125v2Zm5.125-1V24.5h2v-6.125h-2Zm1 5.125h-6.125v2H67.5v-2Zm-5.125 1v-6.125h-2V24.5h2Zm-7.125 1h6.125v-2H55.25v2Zm5.125-1v6.125h2V24.5h-2Zm1 5.125H55.25v2h6.125v-2Zm-5.125 1V24.5h-2v6.125h2Zm-7.125 1h6.125v-2h-6.125v2Zm5.125-1v6.125h2v-6.125h-2Zm1 5.125h-6.125v2h6.125v-2Zm-5.125 1v-6.125h-2v6.125h2Zm-7.125 1h6.125v-2H43v2Zm5.125-1v6.125h2V36.75h-2Zm1 5.125H43v2h6.125v-2Zm-5.125 1V36.75h-2v6.125h2Zm48 0h-1v1h1v-1ZM92 0v-1h-1v1h1Zm12.25 0h1v-1h-1v1Zm0 18.375h-1v1h1v-1Zm18.375 0v1h1v-1h-1Zm0-18.375v-1h-1v1h1Zm12.25 0h1v-1h-1v1Zm0 42.875v1h1v-1h-1Zm-12.25 0h-1v1h1v-1Zm0-18.375h1v-1h-1v1Zm-18.375 0v-1h-1v1h1Zm0 18.375v1h1v-1h-1Zm-11.25 0V0h-2v42.875h2ZM92 1h12.25v-2H92v2Zm11.25-1v18.375h2V0h-2Zm1 19.375h18.375v-2H104.25v2Zm19.375-1V0h-2v18.375h2Zm-1-17.375h12.25v-2h-12.25v2Zm11.25-1v42.875h2V0h-2Zm1 41.875h-12.25v2h12.25v-2Zm-11.25 1V24.5h-2v18.375h2Zm-1-19.375H104.25v2h18.375v-2Zm-19.375 1v18.375h2V24.5h-2Zm1 17.375H92v2h12.25v-2Zm55.125 1h-1v1h1v-1Zm0-36.75h1v-1h-1v1Zm-12.25 0h-1v1h1v-1Zm0-6.125v-1h-1v1h1Zm36.75 0h1v-1h-1v1Zm0 6.125v1h1v-1h-1Zm-12.25 0v-1h-1v1h1Zm0 36.75v1h1v-1h-1Zm-11.25 0V6.125h-2v36.75h2Zm-1-37.75h-12.25v2h12.25v-2Zm-11.25 1V0h-2v6.125h2Zm-1-5.125h36.75v-2h-36.75v2Zm35.75-1v6.125h2V0h-2Zm1 5.125h-12.25v2h12.25v-2Zm-13.25 1v36.75h2V6.125h-2Zm1 35.75h-12.25v2h12.25v-2Zm18.375 1h-1v1h1v-1ZM190 0v-1h-1v1h1Zm12.25 0h1v-1h-1v1Zm0 6.125h-1v1h1v-1Zm6.125 0h1v-1h-1v1Zm0 6.125h-1v1h1v-1Zm6.125 0v1h1v-1h-1Zm0-6.125v-1h-1v1h1Zm6.125 0v1h1v-1h-1Zm0-6.125v-1h-1v1h1Zm12.25 0h1v-1h-1v1Zm0 42.875v1h1v-1h-1Zm-12.25 0h-1v1h1v-1Zm0-24.5h1v-1h-1v1Zm-6.125 0v-1h-1v1h1Zm0 12.25v1h1v-1h-1Zm-6.125 0h-1v1h1v-1Zm0-12.25h1v-1h-1v1Zm-6.125 0v-1h-1v1h1Zm0 24.5v1h1v-1h-1Zm-11.25 0V0h-2v42.875h2ZM190 1h12.25v-2H190v2Zm11.25-1v6.125h2V0h-2Zm1 7.125h6.125v-2h-6.125v2Zm5.125-1v6.125h2V6.125h-2Zm1 7.125h6.125v-2h-6.125v2Zm7.125-1V6.125h-2v6.125h2Zm-1-5.125h6.125v-2H214.5v2Zm7.125-1V0h-2v6.125h2Zm-1-5.125h12.25v-2h-12.25v2Zm11.25-1v42.875h2V0h-2Zm1 41.875h-12.25v2h12.25v-2Zm-11.25 1v-24.5h-2v24.5h2Zm-1-25.5H214.5v2h6.125v-2Zm-7.125 1v12.25h2v-12.25h-2Zm1 11.25h-6.125v2h6.125v-2Zm-5.125 1v-12.25h-2v12.25h2Zm-1-13.25h-6.125v2h6.125v-2Zm-7.125 1v24.5h2v-24.5h-2Zm1 23.5H190v2h12.25v-2Zm42.875 1h-1v1h1v-1Zm0-42.875v-1h-1v1h1Zm12.25 0h1v-1h-1v1Zm0 36.75h-1v1h1v-1Zm24.5 0h1v-1h-1v1Zm0 6.125v1h1v-1h-1Zm-35.75 0V0h-2v42.875h2Zm-1-41.875h12.25v-2h-12.25v2Zm11.25-1v36.75h2V0h-2Zm1 37.75h24.5v-2h-24.5v2Zm23.5-1v6.125h2V36.75h-2Zm1 5.125h-36.75v2h36.75v-2Zm12.25 1h-1v1h1v-1Zm0-6.125v-1h-1v1h1Zm6.125 0v1h1v-1h-1Zm0-6.125v-1h-1v1h1Zm6.125 0v1h1v-1h-1Zm0-6.125v-1h-1v1h1Zm6.125 0v1h1v-1h-1Zm0-6.125h1v-1h-1v1Zm-6.125 0h-1v1h1v-1Zm0-6.125h1v-1h-1v1Zm-6.125 0h-1v1h1v-1Zm0-6.125h1v-1h-1v1Zm-6.125 0h-1v1h1v-1Zm0-6.125v-1h-1v1h1Zm12.25 0h1v-1h-1v1Zm0 6.125h-1v1h1v-1Zm6.125 0h1v-1h-1v1Zm0 6.125h-1v1h1v-1Zm6.125 0h1v-1h-1v1Zm0 6.125h-1v1h1v-1Zm6.125 0h1v-1h-1v1Zm0 6.125v1h1v-1h-1Zm-6.125 0v-1h-1v1h1Zm0 6.125v1h1v-1h-1Zm-6.125 0v-1h-1v1h1Zm0 6.125v1h1v-1h-1Zm-6.125 0v-1h-1v1h1Zm0 6.125v1h1v-1h-1Zm-11.25 0V36.75h-2v6.125h2Zm-1-5.125h6.125v-2h-6.125v2Zm7.125-1v-6.125h-2v6.125h2Zm-1-5.125h6.125v-2h-6.125v2Zm7.125-1V24.5h-2v6.125h2Zm-1-5.125h6.125v-2h-6.125v2Zm7.125-1v-6.125h-2V24.5h2Zm-1-7.125h-6.125v2h6.125v-2Zm-5.125 1V12.25h-2v6.125h2Zm-1-7.125h-6.125v2h6.125v-2Zm-5.125 1V6.125h-2v6.125h2Zm-1-7.125h-6.125v2h6.125v-2Zm-5.125 1V0h-2v6.125h2Zm-1-5.125h12.25v-2h-12.25v2Zm11.25-1v6.125h2V0h-2Zm1 7.125h6.125v-2h-6.125v2Zm5.125-1v6.125h2V6.125h-2Zm1 7.125h6.125v-2H312.5v2Zm5.125-1v6.125h2V12.25h-2Zm1 7.125h6.125v-2h-6.125v2Zm5.125-1V24.5h2v-6.125h-2Zm1 5.125h-6.125v2h6.125v-2Zm-7.125 1v6.125h2V24.5h-2Zm1 5.125H312.5v2h6.125v-2Zm-7.125 1v6.125h2v-6.125h-2Zm1 5.125h-6.125v2h6.125v-2Zm-7.125 1v6.125h2V36.75h-2Zm1 5.125h-12.25v2h12.25v-2Z" mask="url(#a)"/></svg>